<?xml version="1.0" encoding="utf-8"?>
<!-- Svg Vector Icons : http://www.onlinewebfonts.com/icon -->
<!DOCTYPE svg PUBLIC "-//W3C//DTD SVG 1.1//EN" "http://www.w3.org/Graphics/SVG/1.1/DTD/svg11.dtd">
<svg version="1.1" xmlns="http://www.w3.org/2000/svg" xmlns:xlink="http://www.w3.org/1999/xlink" x="0px" y="0px" viewBox="0 0 256 256" enable-background="new 0 0 256 256" xml:space="preserve">
<metadata> Svg Vector Icons : http://www.onlinewebfonts.com/icon </metadata>
<g><g><g><path fill="#000000" d="M20.8,20.4v10.5l2.8,0.6c9.5,2,14.8,12.2,10.9,21.1c-2.1,4.7-6.7,8.3-11.6,9.1l-2.2,0.4v11.7v11.7H22c2.4,0,6.1,1.7,8.5,3.8c6,5.2,7.1,13.2,2.7,20c-2.2,3.5-5.7,5.7-11,6.8l-1.5,0.3V128v11.5l1.5,0.3c5.3,1.2,8.7,3.2,11,6.8c4.3,6.5,3.1,14.8-2.8,20.1c-2.4,2.1-6.1,3.8-8.5,3.8h-1.2v11.7v11.7l2.2,0.4c8.9,1.4,14.8,10.7,12.3,19.2c-1.6,5.6-6.1,9.8-11.6,11l-2.8,0.6v10.5V246h10.4h10.3l0.1-2.6c0.2-5.3,3.9-10.8,9-13.2c3.5-1.7,8.9-1.7,12.4-0.1c5.5,2.5,9.2,7.8,9.2,13.1v2.8h8.4h8.4v-2.3c0-5.5,3.8-11.2,9-13.5c3.7-1.6,9.1-1.7,12.5-0.1c5.2,2.3,9,7.9,9.1,13.1l0.1,2.8h8.4h8.4l0.1-2.8c0.1-5.2,3.9-10.8,9.1-13.1c3.7-1.7,8.9-1.6,12.7,0.3c5.3,2.6,8.8,7.9,8.8,13.3v2.3h8.4h8.4v-2.8c0.1-5.1,3.4-10.1,8.7-12.8c3.6-1.8,9.3-1.9,13-0.2c5.1,2.5,8.8,7.9,9,13.2l0.1,2.6h10.4h10.3v-10.4v-10.5l-2.8-0.6c-9.9-2-15.2-13-10.6-21.9c2.2-4.3,6.6-7.6,11.3-8.3l2.2-0.4v-11.7v-11.7H234c-2.4,0-6.1-1.7-8.5-3.8c-6-5.2-7.1-13.5-2.8-20.1c2.4-3.6,6-5.8,11.1-6.8l1.4-0.3V128v-11.5l-1.4-0.3c-7.1-1.6-11.3-5-13.1-11c-1-3.3-0.9-5.8,0.2-9.2c1.7-5.2,8.2-10.4,13.1-10.4h1.2V73.8V62.1l-2.2-0.4c-4.7-0.7-9.1-4-11.3-8.3c-4.6-8.9,0.7-19.8,10.6-22l2.8-0.6V20.4V10h-10.3h-10.4l-0.1,2.5c-0.3,7.8-7.3,14.5-15.4,14.5c-8.1,0-15.2-6.6-15.2-14.3V10h-8.3h-8.3l-0.2,3c-0.4,5.6-3.9,10.5-9.3,12.9c-3.3,1.5-8.9,1.5-12.2,0c-5.2-2.3-9-7.9-9.1-13.1l-0.1-2.8H128h-8.4l-0.1,2.9c-0.3,10.5-12.2,17.4-21.8,12.7c-5.2-2.6-8.8-7.9-8.8-13.3V10h-8.3h-8.3L72,13.4c-0.5,5.5-3.8,10-9.1,12.4c-3.8,1.7-9,1.6-12.6-0.2c-5.1-2.6-8.7-7.9-8.9-13L41.5,10H31.1H20.8V20.4z M210.6,128v90.7H128H45.4V128V37.3H128h82.6V128z"/><path fill="#000000" d="M123.5,68.3c-15,2.3-26.1,14.3-27.1,29.4c-1,15,9.5,29.3,24.1,32.7c10.9,2.6,21.9-0.6,29.8-8.6c6.7-6.7,9.8-14.9,9.2-24.2c-0.9-14.4-11.7-26.6-25.8-29.1C129.1,67.6,127.7,67.6,123.5,68.3z M134.9,84.2c3.7,1.7,6.6,4.4,8.3,8c1.3,2.6,1.5,3.7,1.5,7.2c0.1,3.5-0.2,4.7-1.3,7.1c-1.7,3.6-4.4,6.3-8,8.2c-2.4,1.3-3.3,1.5-7.4,1.5c-3.9,0-5.1-0.2-7.2-1.2c-3.4-1.7-6.6-4.9-8.2-8.4c-2-4.3-2-10.2,0.1-14.4C116.7,83.9,126.5,80.4,134.9,84.2z"/><path fill="#000000" d="M142.7,134.2c-3.9,0.4-5.6,1.4-7,4.4c-1.6,3.5-3.8,4.8-7.8,4.8c-3.9,0-5.6-1.1-7.6-4.8c-2.2-4-3.2-4.4-11.5-4.4c-8.3,0-11.4,0.6-17.8,3.8c-6,2.9-12.5,9.3-15.3,15.1c-3.3,6.7-3.8,9.4-3.8,20.5c0,9.2,0.1,9.8,1.2,11.3c2.5,3.5,0.2,3.4,55,3.4c54.8,0,52.4,0.2,55-3.4c1.1-1.5,1.2-2.4,1.3-8.9c0.4-15.5-2.7-24.2-11.4-32.5c-4-3.8-10.3-7.2-15.5-8.4C153.6,134.2,147,133.8,142.7,134.2z M111.5,151.7c8.6,8.6,24.4,8.6,33.1-0.1l2.7-2.7l3.7,0.2c10.6,0.7,19.4,11.1,18.6,22.1l-0.2,2.2H128H86.6l-0.2-2.2c-0.8-11.4,8.5-22,19.4-22.1C108.8,149,108.9,149,111.5,151.7z"/></g></g></g>
</svg>